<svg xmlns="http://www.w3.org/2000/svg" viewBox="0 0 1200 200" preserveAspectRatio="xMidYMid slice" fill="none">
  <defs>
    <linearGradient id="heroGradient" x1="0" y1="0" x2="1" y2="1">
      <stop offset="0%" stop-color="hsl(175,48%,83%)"/>
      <stop offset="45%" stop-color="hsl(175,38%,89%)"/>
      <stop offset="100%" stop-color="hsl(175,28%,95%)"/>
    </linearGradient>
  </defs>

  <rect width="1200" height="200" fill="url(#heroGradient)"/>

  <g stroke="hsl(175,60%,32%)" stroke-width="0.4" opacity="0.14">
    <line x1="0" y1="40" x2="1200" y2="40"/>
    <line x1="0" y1="80" x2="1200" y2="80"/>
    <line x1="0" y1="120" x2="1200" y2="120"/>
    <line x1="0" y1="160" x2="1200" y2="160"/>

    <line x1="100" y1="0" x2="100" y2="200"/>
    <line x1="200" y1="0" x2="200" y2="200"/>
    <line x1="300" y1="0" x2="300" y2="200"/>
    <line x1="400" y1="0" x2="400" y2="200"/>
    <line x1="500" y1="0" x2="500" y2="200"/>
    <line x1="600" y1="0" x2="600" y2="200"/>
    <line x1="700" y1="0" x2="700" y2="200"/>
    <line x1="800" y1="0" x2="800" y2="200"/>
    <line x1="900" y1="0" x2="900" y2="200"/>
    <line x1="1000" y1="0" x2="1000" y2="200"/>
    <line x1="1100" y1="0" x2="1100" y2="200"/>
  </g>

  <path d="M -50 220 A 420 420 0 0 1 640 -40" stroke="hsl(175,55%,35%)" stroke-width="1" opacity="0.28"/>
  <path d="M 1240 240 A 380 380 0 0 0 520 -20" stroke="hsl(175,50%,38%)" stroke-width="0.9" opacity="0.18"/>

  <g opacity="0.35" stroke="hsl(175,55%,34%)">
    <circle cx="940" cy="70" r="58" stroke-width="0.8" stroke-dasharray="8 10"/>
    <circle cx="940" cy="70" r="22" stroke-width="1"/>
    <circle cx="940" cy="70" r="9" stroke-width="1.3"/>
    <circle cx="940" cy="70" r="3.5" fill="hsl(175,55%,38%)" stroke="none"/>
  </g>

  <g opacity="0.28" stroke="hsl(175,52%,34%)">
    <circle cx="160" cy="130" r="14" stroke-width="0.8"/>
    <circle cx="160" cy="130" r="6" stroke-width="1.1"/>
    <circle cx="160" cy="130" r="2.2" fill="hsl(175,52%,38%)" stroke="none"/>

    <circle cx="1100" cy="160" r="10" stroke-width="0.8"/>
    <circle cx="1100" cy="160" r="4.2" stroke-width="1.1"/>
    <circle cx="1100" cy="160" r="1.6" fill="hsl(175,52%,38%)" stroke="none"/>

    <circle cx="420" cy="50" r="9" stroke-width="0.8"/>
    <circle cx="420" cy="50" r="3.6" stroke-width="1.1"/>
    <circle cx="420" cy="50" r="1.4" fill="hsl(175,52%,38%)" stroke="none"/>
  </g>

  <g stroke="hsl(175,50%,36%)" stroke-width="0.8" opacity="0.20">
    <line x1="160" y1="130" x2="940" y2="70"/>
    <line x1="940" y1="70" x2="1100" y2="160"/>
    <line x1="420" y1="50" x2="940" y2="70"/>
  </g>
</svg>
